<?xml version="1.0" encoding="UTF-8" standalone="no"?>
<svg width="17px" height="28px" viewBox="0 0 17 28" version="1.1" xmlns="http://www.w3.org/2000/svg" xmlns:xlink="http://www.w3.org/1999/xlink">
    <!-- Generator: Sketch 3.6.1 (26313) - http://www.bohemiancoding.com/sketch -->
    <title>Shape</title>
    <desc>Created with Sketch.</desc>
    <defs></defs>
    <g id="Accueil" stroke="none" stroke-width="1" fill="none" fill-rule="evenodd">
        <g id="Desktop-HD" transform="translate(-868.000000, -465.000000)" fill="#FFFFFF">
            <g id="header" transform="translate(-18.000000, 0.000000)">
                <g id="hasard" transform="translate(527.000000, 447.000000)">
                    <g id="Group" transform="translate(63.000000, 17.000000)">
                        <g id="chevron-right.1" transform="translate(296.000000, 0.463653)">
                            <g id="Chevron_right" transform="translate(0.211203, 0.534910)">
                                <path d="M4.93719602,1.08313474 C5.9023199,2.02516953 15.3319034,11.9234615 15.3319034,11.9234615 C15.8467901,12.4291126 16.1053879,13.0871516 16.1053879,13.7451906 C16.1053879,14.4032296 15.8467901,15.0612686 15.3319034,15.5623018 C15.3319034,15.5623018 5.9023199,25.4652116 4.93719602,26.4026286 C3.97207214,27.3446634 2.23577273,27.4093128 1.20830832,26.4026286 C0.178534993,25.4005622 0.0977231852,23.9990545 1.20830832,22.7684061 L9.85978957,13.7451906 L1.20830832,4.721975 C0.0977231852,3.49132662 0.178534993,2.08751007 1.20830832,1.08313474 C2.23577273,0.0764505072 3.97207214,0.138791045 4.93719602,1.08313474 L4.93719602,1.08313474 Z" id="Shape"></path>
                            </g>
                        </g>
                    </g>
                </g>
            </g>
        </g>
    </g>
</svg>