<?xml version="1.0" encoding="UTF-8" standalone="no"?>
<svg width="27px" height="27px" viewBox="0 0 27 27" version="1.1" xmlns="http://www.w3.org/2000/svg" xmlns:xlink="http://www.w3.org/1999/xlink">
    <!-- Generator: Sketch 3.6.1 (26313) - http://www.bohemiancoding.com/sketch -->
    <title>Shape</title>
    <desc>Created with Sketch.</desc>
    <defs></defs>
    <g id="Histoires-item" stroke="none" stroke-width="1" fill="none" fill-rule="evenodd">
        <g id="Desktop-HD" transform="translate(-1177.000000, -1086.000000)" fill="#000000">
            <g id="arrow-with-circle-down.1" transform="translate(1190.476389, 1099.346034) rotate(-180.000000) translate(-1190.476389, -1099.346034) translate(1176.976389, 1085.846034)">
                <g id="Arrow_circled_down" transform="translate(0.000000, -0.000000)">
                    <path d="M13.3960142,0.535840567 C6.29210785,0.535840567 0.534500965,6.29344746 0.534500965,13.3960142 C0.534500965,20.4999205 6.29210785,26.2575274 13.3960142,26.2575274 C20.4972413,26.2575274 26.2561878,20.4999205 26.2561878,13.3960142 C26.2561878,6.29344746 20.4972413,0.535840567 13.3960142,0.535840567 L13.3960142,0.535840567 Z M13.3946746,23.5769849 C7.77236742,23.5769849 3.2137038,19.0196609 3.2137038,13.3960142 C3.2137038,7.77236742 7.77102782,3.2150434 13.3946746,3.2150434 C19.0183213,3.2150434 23.5769849,7.77370702 23.5769849,13.3960142 C23.5769849,19.0183213 19.0169817,23.5769849 13.3946746,23.5769849 L13.3946746,23.5769849 Z M16.075217,8.0376085 L10.7168113,8.0376085 L10.7168113,13.3960142 L7.36780779,13.3960142 L13.3960142,19.4242205 L19.4242205,13.3960142 L16.075217,13.3960142 L16.075217,8.0376085 L16.075217,8.0376085 Z" id="Shape"></path>
                </g>
            </g>
        </g>
    </g>
</svg>