<?xml version="1.0" encoding="UTF-8" standalone="no"?>
<svg width="20px" height="20px" viewBox="0 0 17 17" version="1.1" xmlns="http://www.w3.org/2000/svg" xmlns:xlink="http://www.w3.org/1999/xlink">
    <!-- Generator: Sketch 3.6.1 (26313) - http://www.bohemiancoding.com/sketch -->
    <title>Search Icon</title>
    <desc>Created with Sketch.</desc>
    <defs></defs>
    <g id="Auteurs" stroke="none" stroke-width="1" fill="none" fill-rule="evenodd">
        <g id="Desktop-HD" transform="translate(-822.000000, -564.000000)" fill="#8493A8">
            <path d="M837.927011,580.186135 C837.533468,580.57969 836.895129,580.57969 836.50092,580.186135 L833.40861,577.093729 C832.240657,577.96622 830.796556,578.488513 829.226389,578.488513 C825.358334,578.488513 822.222668,575.353417 822.222668,571.485241 C822.222668,567.617065 825.358334,564.481301 829.226389,564.481301 C833.094444,564.481301 836.230109,567.617065 836.230109,571.485241 C836.230109,573.05479 835.707165,574.499603 834.834701,575.667593 L837.927011,578.76 C838.32122,579.153554 838.32122,579.791913 837.927011,580.186135 L837.927011,580.186135 Z M829.226389,566.482427 C826.463588,566.482427 824.223731,568.722353 824.223731,571.485241 C824.223731,574.247461 826.463588,576.488055 829.226389,576.488055 C831.98919,576.488055 834.229046,574.247461 834.229046,571.485241 C834.229046,568.722353 831.98919,566.482427 829.226389,566.482427 L829.226389,566.482427 Z" id="Search-Icon"></path>
        </g>
    </g>
</svg>