<svg xmlns="http://www.w3.org/2000/svg" width="32" height="32" viewBox="0 0 32 32">
  <circle cx="16" cy="16" r="16" fill="#48A0DC"/>
  <path d="M23.002 12.305c-.515.221-1.069.37-1.65.437.593-.343 1.049-.887 1.263-1.535-.555.318-1.169.549-1.824.674-.524-.539-1.271-.876-2.097-.876-1.586 0-2.873 1.242-2.873 2.774 0 .218.025.43.074.632-2.388-.115-4.505-1.22-5.922-2.899-.248.41-.389.888-.389 1.396 0 .963.507 1.813 1.278 2.311-.471-.015-.914-.14-1.301-.348v.035c0 1.345.99 2.466 2.305 2.721-.241.063-.495.098-.757.098-.186 0-.365-.018-.541-.05.366 1.103 1.427 1.905 2.684 1.927-.983.745-2.222 1.188-3.568 1.188-.232 0-.461-.014-.686-.039 1.271.788 2.782 1.247 4.404 1.247 5.285 0 8.174-4.229 8.174-7.896 0-.12-.002-.241-.008-.359.561-.393 1.049-.882 1.434-1.438z" fill="#FFF"/>
</svg>
